<mxfile host="0cb435ef-4b0f-4e2b-9469-d7f6b4c14eb4" modified="2020-09-04T10:06:38.630Z" agent="5.0 (Macintosh; Intel Mac OS X 10_15_6) AppleWebKit/537.36 (KHTML, like Gecko) Code/1.48.2 Chrome/78.0.3904.130 Electron/7.3.2 Safari/537.36" etag="6efpMNrLuavLPrc6wL7p" version="13.1.3">
    <diagram id="6hGFLwfOUW9BJ-s0fimq" name="Page-1">
        <mxGraphModel dx="1718" dy="398" grid="1" gridSize="10" guides="1" tooltips="1" connect="1" arrows="1" fold="1" page="1" pageScale="1" pageWidth="827" pageHeight="1169" math="0" shadow="0">
            <root>
                <mxCell id="0"/>
                <mxCell id="1" parent="0"/>
                <mxCell id="12" value="«SERVER»&lt;br&gt;&lt;b&gt;Component&lt;/b&gt;" style="html=1;dropTarget=0;" parent="1" vertex="1">
                    <mxGeometry x="102" y="150" width="550" height="435" as="geometry"/>
                </mxCell>
                <mxCell id="13" value="" style="shape=component;jettyWidth=8;jettyHeight=4;" parent="12" vertex="1">
                    <mxGeometry x="1" width="20" height="20" relative="1" as="geometry">
                        <mxPoint x="-27" y="7" as="offset"/>
                    </mxGeometry>
                </mxCell>
                <mxCell id="33" style="edgeStyle=orthogonalEdgeStyle;rounded=0;orthogonalLoop=1;jettySize=auto;html=1;entryX=0;entryY=0.5;entryDx=0;entryDy=0;" edge="1" parent="1" source="3" target="4">
                    <mxGeometry relative="1" as="geometry"/>
                </mxCell>
                <mxCell id="3" value="routes" style="swimlane;" parent="1" vertex="1">
                    <mxGeometry x="177" y="405" width="88" height="110" as="geometry"/>
                </mxCell>
                <mxCell id="41" style="edgeStyle=orthogonalEdgeStyle;rounded=0;orthogonalLoop=1;jettySize=auto;html=1;exitX=1;exitY=0.5;exitDx=0;exitDy=0;entryX=0;entryY=0.5;entryDx=0;entryDy=0;" edge="1" parent="1" source="4" target="7">
                    <mxGeometry relative="1" as="geometry"/>
                </mxCell>
                <mxCell id="4" value="Services" style="swimlane;" parent="1" vertex="1">
                    <mxGeometry x="315" y="405" width="100" height="110" as="geometry"/>
                </mxCell>
                <mxCell id="42" style="edgeStyle=orthogonalEdgeStyle;rounded=0;orthogonalLoop=1;jettySize=auto;html=1;" edge="1" parent="1" source="7" target="20">
                    <mxGeometry relative="1" as="geometry"/>
                </mxCell>
                <mxCell id="7" value="Query" style="swimlane;startSize=23;" parent="1" vertex="1">
                    <mxGeometry x="459" y="405" width="100" height="110" as="geometry"/>
                </mxCell>
                <mxCell id="16" value="IN" style="html=1;" parent="1" vertex="1">
                    <mxGeometry x="622" y="255" width="60" height="55" as="geometry"/>
                </mxCell>
                <mxCell id="17" value="«Persistence»&lt;br&gt;&lt;b&gt;Component&lt;/b&gt;" style="html=1;dropTarget=0;" parent="1" vertex="1">
                    <mxGeometry x="880" y="150" width="250" height="435" as="geometry"/>
                </mxCell>
                <mxCell id="18" value="" style="shape=component;jettyWidth=8;jettyHeight=4;" parent="17" vertex="1">
                    <mxGeometry x="1" width="20" height="20" relative="1" as="geometry">
                        <mxPoint x="-27" y="7" as="offset"/>
                    </mxGeometry>
                </mxCell>
                <mxCell id="19" value="OUT" style="html=1;" parent="1" vertex="1">
                    <mxGeometry x="860" y="255" width="60" height="55" as="geometry"/>
                </mxCell>
                <mxCell id="20" value="OUT" style="html=1;" parent="1" vertex="1">
                    <mxGeometry x="622" y="365" width="60" height="55" as="geometry"/>
                </mxCell>
                <mxCell id="37" style="edgeStyle=orthogonalEdgeStyle;rounded=0;orthogonalLoop=1;jettySize=auto;html=1;exitX=1;exitY=0.5;exitDx=0;exitDy=0;" edge="1" parent="1" source="21">
                    <mxGeometry relative="1" as="geometry">
                        <mxPoint x="950" y="392.2941176470589" as="targetPoint"/>
                    </mxGeometry>
                </mxCell>
                <mxCell id="21" value="IN" style="html=1;" parent="1" vertex="1">
                    <mxGeometry x="860" y="365" width="60" height="55" as="geometry"/>
                </mxCell>
                <mxCell id="38" style="edgeStyle=orthogonalEdgeStyle;rounded=0;orthogonalLoop=1;jettySize=auto;html=1;exitX=0;exitY=0.25;exitDx=0;exitDy=0;entryX=1;entryY=0.5;entryDx=0;entryDy=0;" edge="1" parent="1" source="22" target="19">
                    <mxGeometry relative="1" as="geometry"/>
                </mxCell>
                <mxCell id="22" value="DataBase" style="swimlane;startSize=23;" parent="1" vertex="1">
                    <mxGeometry x="950" y="195" width="135" height="340" as="geometry"/>
                </mxCell>
                <mxCell id="30" value="OUT" style="html=1;" vertex="1" parent="1">
                    <mxGeometry x="71" y="255" width="60" height="55" as="geometry"/>
                </mxCell>
                <mxCell id="32" style="edgeStyle=orthogonalEdgeStyle;rounded=0;orthogonalLoop=1;jettySize=auto;html=1;exitX=1;exitY=0.5;exitDx=0;exitDy=0;entryX=0;entryY=0.5;entryDx=0;entryDy=0;" edge="1" parent="1" source="31" target="3">
                    <mxGeometry relative="1" as="geometry"/>
                </mxCell>
                <mxCell id="31" value="IN" style="html=1;" vertex="1" parent="1">
                    <mxGeometry x="70" y="365" width="60" height="55" as="geometry"/>
                </mxCell>
                <mxCell id="43" value="" style="rounded=0;orthogonalLoop=1;jettySize=auto;html=1;endArrow=none;endFill=0;exitX=1;exitY=0.5;exitDx=0;exitDy=0;" edge="1" target="45" parent="1" source="20">
                    <mxGeometry relative="1" as="geometry">
                        <mxPoint x="710" y="550" as="sourcePoint"/>
                    </mxGeometry>
                </mxCell>
                <mxCell id="44" value="" style="rounded=0;orthogonalLoop=1;jettySize=auto;html=1;endArrow=halfCircle;endFill=0;endSize=6;strokeWidth=1;exitX=0;exitY=0.5;exitDx=0;exitDy=0;" edge="1" parent="1" source="21">
                    <mxGeometry relative="1" as="geometry">
                        <mxPoint x="860.06" y="390.70500000000004" as="sourcePoint"/>
                        <mxPoint x="775" y="392" as="targetPoint"/>
                    </mxGeometry>
                </mxCell>
                <mxCell id="45" value="" style="ellipse;whiteSpace=wrap;html=1;fontFamily=Helvetica;fontSize=12;fontColor=#000000;align=center;strokeColor=#000000;fillColor=#ffffff;points=[];aspect=fixed;resizable=0;" vertex="1" parent="1">
                    <mxGeometry x="770" y="387.5" width="10" height="10" as="geometry"/>
                </mxCell>
                <mxCell id="52" value="" style="rounded=0;orthogonalLoop=1;jettySize=auto;html=1;endArrow=none;endFill=0;exitX=0.022;exitY=0.552;exitDx=0;exitDy=0;exitPerimeter=0;" edge="1" target="54" parent="1" source="19">
                    <mxGeometry relative="1" as="geometry">
                        <mxPoint x="835" y="260" as="sourcePoint"/>
                    </mxGeometry>
                </mxCell>
                <mxCell id="53" value="" style="rounded=0;orthogonalLoop=1;jettySize=auto;html=1;endArrow=halfCircle;endFill=0;entryX=0.5;entryY=0.5;entryDx=0;entryDy=0;endSize=6;strokeWidth=1;exitX=1.028;exitY=0.545;exitDx=0;exitDy=0;exitPerimeter=0;" edge="1" target="54" parent="1" source="16">
                    <mxGeometry relative="1" as="geometry">
                        <mxPoint x="785" y="320" as="sourcePoint"/>
                    </mxGeometry>
                </mxCell>
                <mxCell id="54" value="" style="ellipse;whiteSpace=wrap;html=1;fontFamily=Helvetica;fontSize=12;fontColor=#000000;align=center;strokeColor=#000000;fillColor=#ffffff;points=[];aspect=fixed;resizable=0;" vertex="1" parent="1">
                    <mxGeometry x="770" y="280" width="10" height="10" as="geometry"/>
                </mxCell>
                <mxCell id="55" value="«CLIENT»&lt;br&gt;&lt;b&gt;Component&lt;/b&gt;" style="html=1;dropTarget=0;" vertex="1" parent="1">
                    <mxGeometry x="-390" y="150" width="320" height="430" as="geometry"/>
                </mxCell>
                <mxCell id="56" value="" style="shape=component;jettyWidth=8;jettyHeight=4;" vertex="1" parent="55">
                    <mxGeometry x="1" width="20" height="20" relative="1" as="geometry">
                        <mxPoint x="-27" y="7" as="offset"/>
                    </mxGeometry>
                </mxCell>
                <mxCell id="57" value="OUT" style="html=1;" vertex="1" parent="1">
                    <mxGeometry x="-100" y="365" width="60" height="55" as="geometry"/>
                </mxCell>
                <mxCell id="58" value="IN" style="html=1;" vertex="1" parent="1">
                    <mxGeometry x="-100" y="255" width="60" height="55" as="geometry"/>
                </mxCell>
                <mxCell id="74" value="" style="rounded=0;orthogonalLoop=1;jettySize=auto;html=1;endArrow=none;endFill=0;exitX=1;exitY=0.5;exitDx=0;exitDy=0;" edge="1" target="76" parent="1" source="57">
                    <mxGeometry relative="1" as="geometry">
                        <mxPoint x="-20" y="425" as="sourcePoint"/>
                    </mxGeometry>
                </mxCell>
                <mxCell id="75" value="" style="rounded=0;orthogonalLoop=1;jettySize=auto;html=1;endArrow=halfCircle;endFill=0;entryX=0.5;entryY=0.5;entryDx=0;entryDy=0;endSize=6;strokeWidth=1;exitX=0;exitY=0.5;exitDx=0;exitDy=0;" edge="1" target="76" parent="1" source="31">
                    <mxGeometry relative="1" as="geometry">
                        <mxPoint x="20" y="425" as="sourcePoint"/>
                    </mxGeometry>
                </mxCell>
                <mxCell id="76" value="" style="ellipse;whiteSpace=wrap;html=1;fontFamily=Helvetica;fontSize=12;fontColor=#000000;align=center;strokeColor=#000000;fillColor=#ffffff;points=[];aspect=fixed;resizable=0;" vertex="1" parent="1">
                    <mxGeometry y="387.5" width="10" height="10" as="geometry"/>
                </mxCell>
                <mxCell id="77" value="" style="rounded=0;orthogonalLoop=1;jettySize=auto;html=1;endArrow=none;endFill=0;exitX=0;exitY=0.5;exitDx=0;exitDy=0;" edge="1" target="79" parent="1" source="30">
                    <mxGeometry relative="1" as="geometry">
                        <mxPoint y="240" as="sourcePoint"/>
                    </mxGeometry>
                </mxCell>
                <mxCell id="78" value="" style="rounded=0;orthogonalLoop=1;jettySize=auto;html=1;endArrow=halfCircle;endFill=0;endSize=6;strokeWidth=1;exitX=1;exitY=0.5;exitDx=0;exitDy=0;" edge="1" target="79" parent="1" source="58">
                    <mxGeometry relative="1" as="geometry">
                        <mxPoint x="20" y="285" as="sourcePoint"/>
                        <mxPoint y="285" as="targetPoint"/>
                    </mxGeometry>
                </mxCell>
                <mxCell id="79" value="" style="ellipse;whiteSpace=wrap;html=1;fontFamily=Helvetica;fontSize=12;fontColor=#000000;align=center;strokeColor=#000000;fillColor=#ffffff;points=[];aspect=fixed;resizable=0;" vertex="1" parent="1">
                    <mxGeometry y="277.5" width="10" height="10" as="geometry"/>
                </mxCell>
            </root>
        </mxGraphModel>
    </diagram>
</mxfile>